<svg width="300" height="74" viewBox="0 0 300 74" fill="none" xmlns="http://www.w3.org/2000/svg">
<path d="M78.1164 0C61.4109 8.25094 44.7055 16.5031 28 24.7553C28.0051 26.2971 28.0089 27.8401 28.0139 29.3819C28.0089 29.3844 28.0051 29.3869 28 29.3895C28.0051 31.104 28.0101 32.8184 28.0164 34.5329C28.0114 34.5354 28.0051 34.538 28 34.5405C28.0051 36.0822 28.0089 37.6253 28.0139 39.1671C28.0089 39.1696 28.0051 39.1721 28 39.1746C28.0215 46.3981 28.0443 53.6229 28.067 60.8464C31.5655 63.6866 35.0639 66.5256 38.5636 69.3659C39.817 68.699 41.0717 68.0321 42.3251 67.3652C45.3151 69.5764 48.3051 71.7888 51.2951 74C54.6885 68.8578 58.0807 63.7156 61.4742 58.5722C70.649 53.8271 79.8239 49.082 89 44.337V7.874C85.3726 5.24934 81.7438 2.62467 78.1164 0ZM43.1245 63.3223L42.1038 64.8389H41.9609C41.9254 64.2199 41.8888 63.6009 41.8533 62.9819C41.7572 61.3154 41.6611 59.65 41.565 57.9847C41.4878 56.6598 41.4119 55.3336 41.3348 54.0087C41.3183 54.0124 41.3019 54.0124 41.2867 54.02L35.3472 56.9712L31.4112 58.9264L29.7846 59.7345V26.0361L77.3335 2.41162V36.11L53.4516 47.9752C50.7803 51.945 48.1103 55.9135 45.4391 59.8833C44.6675 61.0292 43.896 62.1764 43.1245 63.3223Z" fill="#AE7AFF"/>
<path d="M35.4004 38.2216V31.0435L32.752 32.3546V29.0189L41.8813 24.5007V27.8364L39.2252 29.15V36.3281L35.3992 38.2216H35.4004Z" fill="#AE7AFF"/>
<path d="M35.4004 38.2216V31.0435L32.752 32.3546V29.0189L41.8813 24.5007V27.8364L39.2252 29.15V36.3281L35.3992 38.2216H35.4004Z" fill="white" fill-opacity="0.8"/>
<path d="M43.25 34.3363V23.8212L47.076 21.9277V32.4428L43.25 34.3363Z" fill="#AE7AFF"/>
<path d="M43.25 34.3363V23.8212L47.076 21.9277V32.4428L43.25 34.3363Z" fill="white" fill-opacity="0.8"/>
<path d="M55.6444 28.202C55.1789 27.4153 54.7944 26.8518 54.4934 26.5102C54.1924 26.1685 53.9002 25.9631 53.6181 25.895C53.3361 25.8269 52.9921 25.8786 52.5848 26.0513V29.7173L48.7588 31.6108V21.0957L52.5848 19.2022V22.6929C52.9529 22.4774 53.264 22.2025 53.5195 21.871C53.775 21.5394 54.0317 21.0768 54.2923 20.4843C54.5516 19.8918 54.8804 19.0194 55.2776 17.8697L59.4855 15.7871C59.1807 16.6217 58.9139 17.3276 58.6837 17.9037C58.4535 18.4799 58.2195 19.0093 57.9817 19.4909C57.7439 19.9725 57.5226 20.3696 57.3189 20.6797C57.1153 20.9911 56.8839 21.2797 56.6233 21.5483C56.3628 21.8155 56.1009 22.0424 55.8366 22.2278C55.5723 22.4131 55.2561 22.6034 54.888 22.8001V23.6649C55.3092 23.4758 55.6747 23.3371 55.9846 23.2476C56.2932 23.1581 56.5955 23.1165 56.8889 23.1228C57.1836 23.1291 57.4454 23.1846 57.6756 23.2905C57.9058 23.3964 58.1487 23.5741 58.4041 23.825C58.6596 24.0759 58.9075 24.3759 59.1504 24.7276C59.3932 25.0793 59.6689 25.5231 59.9776 26.0589L55.6444 28.2032V28.202Z" fill="#AE7AFF"/>
<path d="M55.6444 28.202C55.1789 27.4153 54.7944 26.8518 54.4934 26.5102C54.1924 26.1685 53.9002 25.9631 53.6181 25.895C53.3361 25.8269 52.9921 25.8786 52.5848 26.0513V29.7173L48.7588 31.6108V21.0957L52.5848 19.2022V22.6929C52.9529 22.4774 53.264 22.2025 53.5195 21.871C53.775 21.5394 54.0317 21.0768 54.2923 20.4843C54.5516 19.8918 54.8804 19.0194 55.2776 17.8697L59.4855 15.7871C59.1807 16.6217 58.9139 17.3276 58.6837 17.9037C58.4535 18.4799 58.2195 19.0093 57.9817 19.4909C57.7439 19.9725 57.5226 20.3696 57.3189 20.6797C57.1153 20.9911 56.8839 21.2797 56.6233 21.5483C56.3628 21.8155 56.1009 22.0424 55.8366 22.2278C55.5723 22.4131 55.2561 22.6034 54.888 22.8001V23.6649C55.3092 23.4758 55.6747 23.3371 55.9846 23.2476C56.2932 23.1581 56.5955 23.1165 56.8889 23.1228C57.1836 23.1291 57.4454 23.1846 57.6756 23.2905C57.9058 23.3964 58.1487 23.5741 58.4041 23.825C58.6596 24.0759 58.9075 24.3759 59.1504 24.7276C59.3932 25.0793 59.6689 25.5231 59.9776 26.0589L55.6444 28.2032V28.202Z" fill="white" fill-opacity="0.8"/>
<path d="M60.0957 22.4876V20.1705L65.3484 17.571V19.8881L60.0957 22.4876Z" fill="#AE7AFF"/>
<path d="M60.0957 22.4876V20.1705L65.3484 17.571V19.8881L60.0957 22.4876Z" fill="white" fill-opacity="0.8"/>
<path d="M35.4004 52.593V45.4148L32.752 46.7259V43.3902L41.8813 38.8721V42.2077L39.2252 43.5213V50.6995L35.3992 52.593H35.4004Z" fill="#AE7AFF"/>
<path d="M35.4004 52.593V45.4148L32.752 46.7259V43.3902L41.8813 38.8721V42.2077L39.2252 43.5213V50.6995L35.3992 52.593H35.4004Z" fill="white" fill-opacity="0.8"/>
<path d="M45.5376 47.5756L41.5801 49.5347L45.2214 37.2181L49.7747 34.9641L53.4161 43.6764L49.4585 45.6355L49.098 44.6257L45.8981 46.2091L45.5376 47.5756ZM46.5381 43.3121L48.4656 42.3578C48.2835 41.7678 48.1583 41.2497 48.0862 40.8009C48.0154 40.3521 47.9698 39.7584 47.9496 39.0209L47.0453 39.4684C47.02 40.2336 46.9757 40.874 46.9087 41.3909C46.8416 41.9078 46.719 42.5482 46.5368 43.3121H46.5381Z" fill="#AE7AFF"/>
<path d="M45.5376 47.5756L41.5801 49.5347L45.2214 37.2181L49.7747 34.9641L53.4161 43.6764L49.4585 45.6355L49.098 44.6257L45.8981 46.2091L45.5376 47.5756ZM46.5381 43.3121L48.4656 42.3578C48.2835 41.7678 48.1583 41.2497 48.0862 40.8009C48.0154 40.3521 47.9698 39.7584 47.9496 39.0209L47.0453 39.4684C47.02 40.2336 46.9757 40.874 46.9087 41.3909C46.8416 41.9078 46.719 42.5482 46.5368 43.3121H46.5381Z" fill="white" fill-opacity="0.8"/>
<path d="M54.4902 43.1456V32.6306L58.3163 30.7371V37.9152L61.9424 36.12V39.4557L54.4902 43.1431V43.1456Z" fill="#AE7AFF"/>
<path d="M54.4902 43.1456V32.6306L58.3163 30.7371V37.9152L61.9424 36.12V39.4557L54.4902 43.1431V43.1456Z" fill="white" fill-opacity="0.8"/>
<path d="M70.1746 35.3838C69.7092 34.5972 69.3247 34.0337 69.0237 33.6921C68.7226 33.3504 68.4305 33.1449 68.1484 33.0769C67.8664 33.0088 67.5223 33.0605 67.1151 33.2332V36.8991L63.2891 38.7926V28.2776L67.1151 26.3841V29.8748C67.4831 29.6592 67.7943 29.3844 68.0498 29.0529C68.3053 28.7213 68.562 28.2587 68.8226 27.6662C69.0818 27.0737 69.4107 26.2013 69.8078 25.0516L74.0158 22.969C73.711 23.8035 73.4441 24.5095 73.2139 25.0856C72.9837 25.6617 72.7498 26.1912 72.512 26.6728C72.2742 27.1543 72.0529 27.5514 71.8505 27.8616C71.6469 28.1729 71.4154 28.4616 71.1548 28.7302C70.8943 28.9974 70.6325 29.2243 70.3681 29.4096C70.1038 29.595 69.7876 29.7853 69.4195 29.982V30.8468C69.8407 30.6577 70.2062 30.519 70.5161 30.4295C70.8247 30.34 71.127 30.2984 71.4205 30.3047C71.7151 30.311 71.977 30.3665 72.2072 30.4724C72.4374 30.5783 72.6802 30.756 72.9357 31.0069C73.1912 31.2578 73.4391 31.5578 73.6819 31.9095C73.9248 32.2612 74.2005 32.705 74.5091 33.2407L70.1759 35.3851L70.1746 35.3838Z" fill="#AE7AFF"/>
<path d="M70.1746 35.3838C69.7092 34.5972 69.3247 34.0337 69.0237 33.6921C68.7226 33.3504 68.4305 33.1449 68.1484 33.0769C67.8664 33.0088 67.5223 33.0605 67.1151 33.2332V36.8991L63.2891 38.7926V28.2776L67.1151 26.3841V29.8748C67.4831 29.6592 67.7943 29.3844 68.0498 29.0529C68.3053 28.7213 68.562 28.2587 68.8226 27.6662C69.0818 27.0737 69.4107 26.2013 69.8078 25.0516L74.0158 22.969C73.711 23.8035 73.4441 24.5095 73.2139 25.0856C72.9837 25.6617 72.7498 26.1912 72.512 26.6728C72.2742 27.1543 72.0529 27.5514 71.8505 27.8616C71.6469 28.1729 71.4154 28.4616 71.1548 28.7302C70.8943 28.9974 70.6325 29.2243 70.3681 29.4096C70.1038 29.595 69.7876 29.7853 69.4195 29.982V30.8468C69.8407 30.6577 70.2062 30.519 70.5161 30.4295C70.8247 30.34 71.127 30.2984 71.4205 30.3047C71.7151 30.311 71.977 30.3665 72.2072 30.4724C72.4374 30.5783 72.6802 30.756 72.9357 31.0069C73.1912 31.2578 73.4391 31.5578 73.6819 31.9095C73.9248 32.2612 74.2005 32.705 74.5091 33.2407L70.1759 35.3851L70.1746 35.3838Z" fill="white" fill-opacity="0.8"/>
</svg>
